<?xml version="1.0" standalone="no"?>
<!DOCTYPE svg PUBLIC "-//W3C//DTD SVG 20010904//EN"
 "http://www.w3.org/TR/2001/REC-SVG-20010904/DTD/svg10.dtd">
<svg version="1.0" xmlns="http://www.w3.org/2000/svg"
 width="400.000000pt" height="400.000000pt" viewBox="0 0 400.000000 400.000000"
 preserveAspectRatio="xMidYMid meet">
<metadata>
Created by potrace 1.11, written by Peter Selinger 2001-2013
</metadata>
<g transform="translate(0.000000,400.000000) scale(0.100000,-0.100000)"
fill="#000000" stroke="none">
<path d="M703 2851 c-58 -27 -93 -83 -100 -160 l-6 -61 -43 0 c-40 0 -44 -2
-44 -25 0 -23 4 -25 45 -25 l46 0 -3 -157 -3 -158 -32 -14 c-18 -8 -33 -21
-33 -28 0 -10 31 -13 140 -13 114 0 140 3 140 14 0 8 -13 17 -30 21 -53 12
-60 34 -60 192 l0 143 70 0 c68 0 70 1 70 25 0 24 -2 25 -70 25 l-70 0 0 50
c0 52 22 118 43 132 22 14 36 9 71 -27 40 -40 58 -43 86 -15 26 26 25 33 -4
67 -21 25 -31 28 -97 31 -57 2 -84 -2 -116 -17z"/>
<path d="M1310 2856 c-46 -8 -66 -16 -68 -27 -2 -11 6 -19 25 -24 15 -3 31
-12 35 -18 10 -16 10 -508 0 -524 -4 -6 -20 -15 -35 -18 -15 -4 -27 -13 -27
-21 0 -11 26 -14 130 -14 108 0 130 2 130 15 0 8 -11 17 -25 21 -37 9 -45 32
-45 137 0 139 22 191 87 203 29 6 39 2 61 -20 27 -26 27 -28 27 -164 l0 -137
-32 -14 c-18 -8 -33 -21 -33 -28 0 -10 29 -13 130 -13 104 0 130 3 130 14 0 8
-12 17 -27 21 -15 3 -31 12 -35 18 -4 7 -8 64 -8 127 0 127 -14 174 -64 220
-22 20 -40 25 -96 28 -58 4 -75 1 -105 -18 l-35 -22 0 136 0 136 -27 -1 c-16
-1 -57 -7 -93 -13z"/>
<path d="M953 2616 c-64 -54 -68 -132 -10 -186 18 -17 57 -45 87 -63 65 -38
87 -80 55 -103 -43 -32 -99 -9 -126 51 -14 31 -26 45 -39 45 -18 0 -20 -7 -20
-75 0 -68 2 -75 20 -75 11 0 20 5 20 10 0 6 14 3 32 -6 22 -12 50 -15 99 -12
59 3 73 8 98 32 52 50 53 123 1 175 -16 16 -54 43 -84 60 -82 46 -107 100 -55
116 30 10 56 -3 79 -41 13 -19 30 -34 41 -34 17 0 19 8 19 60 l0 60 -32 0
c-18 0 -60 3 -94 6 -55 5 -63 3 -91 -20z"/>
<path d="M1910 2629 c-40 -16 -60 -40 -60 -74 0 -39 16 -55 52 -55 22 0 33 8
46 32 28 51 50 70 75 63 32 -10 47 -34 47 -77 l0 -38 -103 -48 c-57 -27 -111
-60 -120 -73 -10 -13 -17 -42 -17 -65 0 -35 5 -47 32 -69 29 -24 38 -27 95
-23 55 3 67 8 98 38 31 30 35 31 35 14 0 -52 92 -74 143 -34 28 22 27 53 -2
48 -37 -6 -41 10 -41 143 0 154 -11 192 -64 214 -40 17 -177 19 -216 4z m160
-257 c0 -38 -5 -53 -22 -69 -51 -46 -101 -35 -96 20 2 26 13 38 53 64 27 18
53 33 57 33 5 0 8 -22 8 -48z"/>
<path d="M2338 2627 c-46 -8 -58 -14 -58 -29 0 -11 7 -18 20 -18 41 0 51 -37
48 -186 l-3 -138 -32 -10 c-18 -5 -33 -15 -33 -22 0 -11 29 -14 140 -14 116 0
140 3 140 15 0 8 -14 17 -36 21 -25 5 -38 14 -45 31 -21 56 2 225 36 263 17
18 20 19 41 5 28 -18 75 -20 92 -3 7 7 12 27 12 45 0 38 -21 53 -77 53 -40 0
-113 -40 -113 -63 0 -22 -20 17 -20 41 0 25 -14 26 -112 9z"/>
<path d="M2733 2628 c-51 -8 -63 -13 -63 -28 0 -11 10 -20 27 -25 15 -3 31
-12 35 -18 11 -18 10 -465 -2 -487 -5 -10 -21 -21 -35 -24 -14 -4 -25 -13 -25
-21 0 -13 23 -15 140 -15 116 0 140 3 140 15 0 8 -14 17 -35 21 -46 8 -55 27
-55 114 l0 71 32 -17 c49 -26 154 -16 207 19 120 80 120 294 0 374 -34 22 -56
28 -113 31 -63 3 -75 1 -108 -22 l-38 -25 0 24 c0 28 -4 29 -107 13z m276 -54
c33 -24 51 -74 51 -147 0 -87 -8 -122 -36 -152 -44 -47 -120 -21 -150 51 -19
45 -18 145 2 194 25 63 85 87 133 54z"/>
<path d="M2468 2152 c-63 -13 -78 -19 -78 -34 0 -13 8 -18 28 -18 51 0 52 -5
52 -277 0 -240 -1 -254 -20 -273 -11 -11 -29 -20 -40 -20 -11 0 -20 -7 -20
-15 0 -12 20 -15 120 -15 97 0 120 3 120 14 0 8 -14 17 -30 21 -20 4 -32 14
-36 29 -8 33 -1 119 11 122 11 3 110 -112 121 -139 4 -13 1 -17 -15 -17 -12 0
-21 -6 -21 -15 0 -12 19 -15 110 -15 86 0 110 3 110 14 0 7 -14 17 -30 22 -20
6 -63 45 -121 109 l-90 100 68 62 c37 35 83 68 101 75 17 7 32 18 32 25 0 10
-26 13 -105 13 -82 0 -105 -3 -105 -14 0 -7 14 -16 30 -19 17 -4 30 -10 30
-15 0 -4 -29 -37 -65 -72 l-65 -64 0 217 c0 119 -3 216 -7 216 -5 -1 -43 -8
-85 -17z"/>
<path d="M520 2095 c0 -9 12 -18 30 -22 54 -10 51 -4 225 -481 54 -148 58
-146 151 98 41 107 77 203 82 213 5 13 29 -44 81 -198 66 -191 77 -216 95
-213 16 2 39 52 122 272 57 148 110 277 119 286 9 10 27 21 41 24 13 4 24 13
24 21 0 12 -18 15 -100 15 -82 0 -100 -3 -100 -15 0 -8 11 -17 24 -21 47 -11
49 -1 -70 -336 l-38 -108 -62 207 c-34 114 -60 213 -57 220 3 7 20 15 39 19
19 3 34 12 34 20 0 11 -26 14 -130 14 -102 0 -130 -3 -130 -13 0 -8 11 -19 25
-25 14 -6 32 -27 41 -45 16 -33 15 -36 -47 -205 -34 -95 -65 -172 -69 -172
-11 0 -133 388 -127 404 3 8 19 17 36 21 17 4 31 13 31 21 0 11 -25 14 -135
14 -114 0 -135 -2 -135 -15z"/>
<path d="M1631 1908 c-113 -56 -151 -220 -75 -329 58 -85 196 -116 294 -66
119 61 155 232 71 337 -64 79 -194 106 -290 58z m176 -43 c40 -27 58 -73 58
-155 0 -91 -22 -136 -79 -164 -76 -37 -144 9 -168 113 -13 58 -1 132 29 177
33 52 105 64 160 29z"/>
<path d="M2258 1914 c-15 -8 -39 -31 -53 -52 l-25 -37 0 48 c0 54 -3 55 -95
33 -57 -13 -73 -39 -30 -50 37 -9 45 -41 45 -172 0 -101 -2 -116 -20 -134 -11
-11 -27 -20 -35 -20 -8 0 -15 -7 -15 -15 0 -12 19 -15 110 -15 87 0 110 3 110
14 0 8 -11 17 -25 20 -37 9 -48 48 -40 136 10 121 59 205 105 180 11 -6 35
-10 53 -8 27 2 33 8 35 31 2 16 -2 35 -9 43 -15 18 -76 17 -111 -2z"/>
<path d="M2965 1897 c-30 -30 -35 -41 -35 -84 0 -61 15 -82 93 -134 116 -78
129 -100 80 -139 -45 -35 -108 -4 -138 68 -8 17 -21 32 -29 32 -13 0 -16 -13
-16 -70 l0 -70 33 0 c17 1 62 -2 98 -6 81 -8 118 9 144 62 21 45 15 97 -17
132 -13 14 -53 44 -89 68 -36 23 -71 49 -78 58 -20 24 -9 59 22 74 24 12 31
11 53 -3 14 -9 33 -30 42 -46 27 -46 42 -37 42 26 0 50 -2 55 -22 55 -13 1
-51 3 -86 6 -61 6 -63 5 -97 -29z"/>
<path d="M3302 1578 c-7 -7 -12 -24 -12 -38 0 -34 17 -50 55 -50 38 0 55 16
55 50 0 34 -17 50 -55 50 -17 0 -36 -5 -43 -12z"/>
</g>
</svg>
